<?xml version="1.0" standalone="no"?>
<!DOCTYPE svg PUBLIC "-//W3C//DTD SVG 20010904//EN"
 "http://www.w3.org/TR/2001/REC-SVG-20010904/DTD/svg10.dtd">
<svg version="1.0" xmlns="http://www.w3.org/2000/svg"
 width="753.000000pt" height="719.000000pt" viewBox="0 0 753.000000 719.000000"
 preserveAspectRatio="xMidYMid meet">
<metadata>
Created by potrace 1.16, written by Peter Selinger 2001-2019
</metadata>
<g transform="translate(0.000000,719.000000) scale(0.100000,-0.100000)"
fill="#000000" stroke="none">
<path d="M2755 6640 c-317 -43 -589 -365 -666 -790 -19 -100 -19 -478 -1 -580
75 -419 301 -842 540 -1004 227 -155 537 -132 738 56 156 147 253 369 284 655
19 168 8 553 -19 713 -67 391 -196 656 -402 822 -131 105 -302 151 -474 128z"/>
<path d="M4690 6641 c-221 -31 -406 -184 -538 -447 -87 -173 -150 -408 -172
-639 -13 -143 -13 -470 1 -592 21 -195 81 -369 174 -509 89 -134 211 -226 354
-268 73 -21 241 -21 327 0 187 47 374 231 508 499 104 208 170 430 201 668 71
552 -126 1046 -490 1230 -102 51 -246 74 -365 58z"/>
<path d="M1083 5025 c-223 -60 -403 -267 -463 -530 -27 -116 -38 -368 -21
-486 34 -236 159 -551 301 -759 81 -117 224 -268 309 -324 225 -150 512 -137
725 33 141 112 260 302 307 491 19 75 21 103 16 235 -5 129 -11 168 -41 280
-117 434 -395 846 -676 1003 -120 67 -324 92 -457 57z"/>
<path d="M6221 5024 c-238 -64 -491 -331 -681 -719 -75 -153 -116 -267 -150
-420 -31 -136 -32 -334 -1 -449 42 -159 141 -319 278 -447 203 -191 487 -220
731 -77 80 46 266 235 334 338 265 402 370 915 263 1285 -73 249 -235 425
-454 489 -69 20 -245 20 -320 0z"/>
<path d="M3635 3939 c-348 -51 -689 -286 -1173 -812 -323 -351 -527 -620 -700
-924 -174 -305 -238 -519 -230 -773 4 -119 8 -146 36 -227 37 -110 98 -221
165 -303 53 -65 180 -166 256 -204 128 -65 327 -103 486 -93 151 10 251 36
490 127 341 130 543 178 785 187 284 10 525 -40 905 -186 306 -118 489 -150
688 -120 280 41 489 169 620 381 126 202 165 458 107 717 -44 205 -170 463
-358 736 -224 326 -436 581 -719 862 -470 467 -802 646 -1193 642 -58 -1 -132
-5 -165 -10z"/>
</g>
</svg>
